<svg xmlns="http://www.w3.org/2000/svg" viewBox="0 0 128.7 60.96">
  <defs>
    <style>
      .cls-1 {
        fill: #fff;
      }

      .cls-2 {
        fill: #1d1d1b;
      }

      .cls-3 {
        fill: #f8d200;
      }

      .cls-4 {
        fill: #e30613;
      }
    </style>
  </defs>
  <g id="Hintergrund">
    <rect class="cls-1" x="-23.07" y="-21.04" width="175" height="104"/>
  </g>
  <g id="Name">
    <path class="cls-2" d="M44.68,2.84a2.37,2.37,0,0,1-.11.75,1.8,1.8,0,0,1-.29.55,1.7,1.7,0,0,1-.43.38,2.28,2.28,0,0,1-.51.21v0a1.73,1.73,0,0,1,.6.22,1.79,1.79,0,0,1,.49.42,1.88,1.88,0,0,1,.33.59,2,2,0,0,1,.13.74,2.31,2.31,0,0,1-.17.89,1.79,1.79,0,0,1-.52.71,2.52,2.52,0,0,1-.88.46A4.34,4.34,0,0,1,42.05,9H40.37V.75H42a4.93,4.93,0,0,1,1.24.14,2.19,2.19,0,0,1,.85.43,1.51,1.51,0,0,1,.49.66A2.35,2.35,0,0,1,44.68,2.84Zm-1,0a1.2,1.2,0,0,0-.41-.94A1.82,1.82,0,0,0,42,1.57H41.4V4.4h.54A1.78,1.78,0,0,0,43.2,4,1.44,1.44,0,0,0,43.63,2.88Zm.15,3.78a1.32,1.32,0,0,0-.43-1,1.82,1.82,0,0,0-1.25-.39h-.7V8.1h.65a2,2,0,0,0,1.32-.36A1.35,1.35,0,0,0,43.78,6.66ZM50.16,9h-.88V8.31h0a1.45,1.45,0,0,1-.16.21,1.74,1.74,0,0,1-.75.48,1.54,1.54,0,0,1-.58.1A2.17,2.17,0,0,1,47.08,9a1.24,1.24,0,0,1-.51-.37A1.59,1.59,0,0,1,46.24,8a3.44,3.44,0,0,1-.11-1V3.24h1V6.92a1.74,1.74,0,0,0,.23,1,.87.87,0,0,0,.72.3,1.14,1.14,0,0,0,.7-.21,1.88,1.88,0,0,0,.46-.41V3.24h1Zm4.59,0V5.28a1.75,1.75,0,0,0-.24-1,.88.88,0,0,0-.74-.32,1.12,1.12,0,0,0-.72.22,2.65,2.65,0,0,0-.45.41V9h-1V3.24h.88v.65h0a1,1,0,0,1,.16-.21A1.18,1.18,0,0,1,53,3.42a1.57,1.57,0,0,1,.45-.22,1.55,1.55,0,0,1,.59-.1,2.08,2.08,0,0,1,.69.11,1.31,1.31,0,0,1,.53.37,1.73,1.73,0,0,1,.33.65,3.4,3.4,0,0,1,.12,1V9ZM56.9,6.18a4.06,4.06,0,0,1,.22-1.45,2.65,2.65,0,0,1,.59-.94,1.93,1.93,0,0,1,.8-.5,2.94,2.94,0,0,1,.91-.15,2.33,2.33,0,0,1,.48,0,1.87,1.87,0,0,1,.33.1V.54l1-.1V9h-.88V8.35h0l-.13.2a2.11,2.11,0,0,1-.26.25,1.83,1.83,0,0,1-.42.21,1.72,1.72,0,0,1-.58.09,1.83,1.83,0,0,1-.77-.16,1.72,1.72,0,0,1-.64-.51,2.65,2.65,0,0,1-.43-.91A4.73,4.73,0,0,1,56.9,6.18Zm2.26,2.06a1.25,1.25,0,0,0,.4-.06A1.28,1.28,0,0,0,59.87,8a1.42,1.42,0,0,0,.22-.18,1,1,0,0,0,.14-.17V4.16a2.09,2.09,0,0,0-.3-.14A1.37,1.37,0,0,0,59.49,4a1.8,1.8,0,0,0-.62.11,1.18,1.18,0,0,0-.51.38,1.92,1.92,0,0,0-.34.67,3.78,3.78,0,0,0-.12,1,4,4,0,0,0,.1,1,1.65,1.65,0,0,0,.28.64,1,1,0,0,0,.88.46Zm7.17-3.07a6.13,6.13,0,0,1,0,.64c0,.18,0,.33,0,.47H63.35a2.54,2.54,0,0,0,.43,1.49,1.37,1.37,0,0,0,1.11.47,1.65,1.65,0,0,0,.46-.06A1.6,1.6,0,0,0,65.7,8,1.8,1.8,0,0,0,66,7.87l.15-.13.35.68-.18.17a1.47,1.47,0,0,1-.32.23,2.16,2.16,0,0,1-.5.2,2.87,2.87,0,0,1-.7.08,2.5,2.5,0,0,1-1-.18A1.89,1.89,0,0,1,63,8.37a2.73,2.73,0,0,1-.47-.95A5.16,5.16,0,0,1,62.41,6a4.32,4.32,0,0,1,.17-1.32,2.61,2.61,0,0,1,.47-.91,2.06,2.06,0,0,1,.69-.53,2.14,2.14,0,0,1,.84-.17,1.63,1.63,0,0,1,1.29.52A2.24,2.24,0,0,1,66.33,5.17ZM64.52,3.89a1,1,0,0,0-.82.43,2.34,2.34,0,0,0-.35,1.23h2.08s0-.09,0-.17V5.14a1.56,1.56,0,0,0-.24-.93A.79.79,0,0,0,64.52,3.89Zm5.56.51a2.4,2.4,0,0,0-.34-.29,1.05,1.05,0,0,0-.66-.19.84.84,0,0,0-.58.18.53.53,0,0,0-.2.43.79.79,0,0,0,.18.53,2.45,2.45,0,0,0,.57.45l.35.21a3.58,3.58,0,0,1,.92.74,1.57,1.57,0,0,1,.33,1,1.52,1.52,0,0,1-.47,1.15,1.87,1.87,0,0,1-1.35.46,2.15,2.15,0,0,1-.6-.07,3,3,0,0,1-.46-.17,1.33,1.33,0,0,1-.33-.21,1,1,0,0,1-.21-.21l.46-.76.17.17a1.8,1.8,0,0,0,.25.18,1.35,1.35,0,0,0,.32.15,1.31,1.31,0,0,0,.41.06,1,1,0,0,0,.66-.19.57.57,0,0,0,.22-.46.92.92,0,0,0,0-.35A.74.74,0,0,0,69.51,7a1.47,1.47,0,0,0-.26-.23l-.36-.23-.36-.23a3.36,3.36,0,0,1-.83-.73,1.47,1.47,0,0,1-.31-1A1.28,1.28,0,0,1,67.52,4a1.45,1.45,0,0,1,.35-.47,1.85,1.85,0,0,1,.53-.31,2,2,0,0,1,.65-.11,2,2,0,0,1,1,.23,1.7,1.7,0,0,1,.28.21,1.72,1.72,0,0,1,.19.17ZM75,3.86,72.66,8.11v0h2.47L75,9H71.41V8.34l2.38-4.29V4H71.55V3.24H75Zm4.82,1.31c0,.25,0,.46,0,.64s0,.33,0,.47H76.81a2.54,2.54,0,0,0,.43,1.49,1.37,1.37,0,0,0,1.11.47,1.53,1.53,0,0,0,.45-.06A1.5,1.5,0,0,0,79.16,8a2.71,2.71,0,0,0,.25-.17l.14-.13.36.68-.18.17a1.47,1.47,0,0,1-.32.23,2.16,2.16,0,0,1-.5.2,2.87,2.87,0,0,1-.7.08,2.5,2.5,0,0,1-1-.18,1.82,1.82,0,0,1-.74-.55A2.73,2.73,0,0,1,76,7.42,5.13,5.13,0,0,1,75.86,6,4.3,4.3,0,0,1,76,4.71a2.61,2.61,0,0,1,.47-.91,2.06,2.06,0,0,1,.69-.53A2.14,2.14,0,0,1,78,3.1a1.63,1.63,0,0,1,1.29.52A2.24,2.24,0,0,1,79.79,5.17ZM78,3.89a1,1,0,0,0-.82.43,2.34,2.34,0,0,0-.35,1.23h2.08s0-.09,0-.17V5.14a1.56,1.56,0,0,0-.24-.93A.82.82,0,0,0,78,3.89ZM84.19,9V5.28a1.75,1.75,0,0,0-.24-1,.88.88,0,0,0-.74-.32,1.12,1.12,0,0,0-.72.22,2.65,2.65,0,0,0-.45.41V9h-1V3.24H82v.65h0a1.45,1.45,0,0,1,.16-.21,1.37,1.37,0,0,1,.31-.26,1.57,1.57,0,0,1,.45-.22,1.55,1.55,0,0,1,.59-.1,2.08,2.08,0,0,1,.69.11,1.31,1.31,0,0,1,.53.37,1.73,1.73,0,0,1,.33.65,3.4,3.4,0,0,1,.12,1V9ZM89,4H87.79V7.2a1.55,1.55,0,0,0,.15.82.6.6,0,0,0,.53.22,1.06,1.06,0,0,0,.37-.06l.22-.1.13.77a1.87,1.87,0,0,1-.28.15,1.49,1.49,0,0,1-.61.1,1.44,1.44,0,0,1-1.11-.41,2,2,0,0,1-.37-1.36V4h-.69V3.39l.69-.15.11-1.59h.86V3.24h1.37Zm3.6.06A.37.37,0,0,0,92.49,4a1.32,1.32,0,0,0-.32,0,1,1,0,0,0-.71.25,1.39,1.39,0,0,0-.36.53V9h-1V3.24H91V4h0a2.41,2.41,0,0,1,.15-.33,1.08,1.08,0,0,1,.24-.28,1.05,1.05,0,0,1,.34-.2,1.33,1.33,0,0,1,.47-.07,1.55,1.55,0,0,1,.33,0l.19.06ZM93.2,7.5a1.73,1.73,0,0,1,.19-.83,1.58,1.58,0,0,1,.52-.54,2.11,2.11,0,0,1,.75-.3,4.56,4.56,0,0,1,.92-.09h.3V5.2a1.41,1.41,0,0,0-.26-1,.91.91,0,0,0-.72-.28,1.23,1.23,0,0,0-.71.19,4.58,4.58,0,0,0-.45.32l-.41-.64.25-.21a2,2,0,0,1,.36-.23,2.79,2.79,0,0,1,.49-.18,2.86,2.86,0,0,1,.62-.07,1.71,1.71,0,0,1,1.33.49,2.27,2.27,0,0,1,.45,1.57V7.77q0,.36,0,.72c0,.23,0,.39,0,.47H96l0-.63h0a1.62,1.62,0,0,1-.14.24,1.88,1.88,0,0,1-.24.25,1.46,1.46,0,0,1-.35.2,1.32,1.32,0,0,1-.47.08,1.46,1.46,0,0,1-.6-.12,1.51,1.51,0,0,1-.49-.33,1.42,1.42,0,0,1-.32-.51A1.66,1.66,0,0,1,93.2,7.5Zm1.73.78a1,1,0,0,0,.36-.06,1.26,1.26,0,0,0,.26-.14.85.85,0,0,0,.19-.19l.14-.17V6.46h-.31a2.2,2.2,0,0,0-1,.24.75.75,0,0,0-.35.69.93.93,0,0,0,.2.66A.74.74,0,0,0,94.93,8.28Zm4.31-.66a.87.87,0,0,0,.1.5.39.39,0,0,0,.35.15.69.69,0,0,0,.22,0,.46.46,0,0,0,.14-.05l.08.72L99.87,9a1.78,1.78,0,0,1-.51.06,1.1,1.1,0,0,1-.79-.29,1.49,1.49,0,0,1-.3-1.06V.54l1-.1Zm5.42-2.45a6.13,6.13,0,0,1,0,.64c0,.18,0,.33,0,.47h-2.91a2.54,2.54,0,0,0,.43,1.49,1.37,1.37,0,0,0,1.11.47,1.65,1.65,0,0,0,.46-.06A1.6,1.6,0,0,0,104,8a1.8,1.8,0,0,0,.25-.17l.14-.13.36.68-.18.17a1.47,1.47,0,0,1-.32.23,2.16,2.16,0,0,1-.5.2,2.87,2.87,0,0,1-.7.08,2.5,2.5,0,0,1-1-.18,1.82,1.82,0,0,1-.74-.55,2.73,2.73,0,0,1-.47-.95A5.16,5.16,0,0,1,100.74,6a4.32,4.32,0,0,1,.17-1.32,2.61,2.61,0,0,1,.47-.91,2.06,2.06,0,0,1,.69-.53,2.14,2.14,0,0,1,.84-.17,1.63,1.63,0,0,1,1.29.52A2.24,2.24,0,0,1,104.66,5.17Zm-1.81-1.28a1,1,0,0,0-.82.43,2.34,2.34,0,0,0-.35,1.23h2.08s0-.09,0-.17V5.14a1.56,1.56,0,0,0-.24-.93A.79.79,0,0,0,102.85,3.89ZM42.57,16H41.4V21h-1V16h-.69v-.64l.69-.13V14.11a2.08,2.08,0,0,1,.13-.79,1.56,1.56,0,0,1,.34-.55,1.31,1.31,0,0,1,.5-.31,2.05,2.05,0,0,1,.61-.1,1.4,1.4,0,0,1,.53.09,1.53,1.53,0,0,1,.28.13l-.2.8a.75.75,0,0,0-.2-.1.81.81,0,0,0-.33-.06.62.62,0,0,0-.52.22,1.24,1.24,0,0,0-.18.78v1h1.29Zm5,4.93h-.88v-.65h0a.84.84,0,0,1-.15.21,1.56,1.56,0,0,1-.3.26,1.88,1.88,0,0,1-.45.22,1.54,1.54,0,0,1-.58.1,2.12,2.12,0,0,1-.69-.11,1.24,1.24,0,0,1-.51-.37A1.48,1.48,0,0,1,43.6,20a3.44,3.44,0,0,1-.11-1V15.24h1v3.68a1.74,1.74,0,0,0,.23,1,.87.87,0,0,0,.72.3,1.14,1.14,0,0,0,.7-.21,2.35,2.35,0,0,0,.46-.41V15.24h1ZM45.15,13.6A.57.57,0,0,1,45,14a.56.56,0,0,1-.8,0,.65.65,0,0,1,0-.88.58.58,0,0,1,.8,0A.57.57,0,0,1,45.15,13.6Zm1.83,0a.6.6,0,0,1-.16.44.57.57,0,0,1-.41.17A.54.54,0,0,1,46,14a.65.65,0,0,1,0-.88.54.54,0,0,1,.4-.16.56.56,0,0,1,.41.16A.6.6,0,0,1,47,13.6Zm4.53,2.49a.53.53,0,0,0-.16-.06A1.32,1.32,0,0,0,51,16a1,1,0,0,0-.71.25,1.39,1.39,0,0,0-.36.53V21H49V15.24h.89V16h0a2.41,2.41,0,0,1,.15-.33,1.31,1.31,0,0,1,.24-.28,1.05,1.05,0,0,1,.34-.2,1.33,1.33,0,0,1,.47-.07,1.42,1.42,0,0,1,.33,0l.19.06Zm5.92.67L60.22,21H58.94l-2.38-3.74h-.62V21h-1V12.75h1V16.4h.64l2.29-3.65H60Zm4.5,4.2H61V15.24h1Zm-.48-7.1a.61.61,0,0,1-.47-.19.68.68,0,0,1-.18-.5.66.66,0,0,1,.18-.48.68.68,0,0,1,.94,0,.66.66,0,0,1,.18.48.68.68,0,0,1-.18.5A.61.61,0,0,1,61.45,13.86ZM66.52,21V17.28a1.75,1.75,0,0,0-.24-1,.88.88,0,0,0-.74-.32,1.12,1.12,0,0,0-.72.22,2.65,2.65,0,0,0-.45.41V21h-1V15.24h.88v.65h0a1.24,1.24,0,0,1,.15-.21,1.64,1.64,0,0,1,.31-.26,1.79,1.79,0,0,1,.46-.22,1.55,1.55,0,0,1,.59-.1,2.08,2.08,0,0,1,.69.11,1.31,1.31,0,0,1,.53.37,1.73,1.73,0,0,1,.33.65,3.4,3.4,0,0,1,.12,1V21Zm2.15-2.78a4.06,4.06,0,0,1,.22-1.45,2.79,2.79,0,0,1,.58-.94,2,2,0,0,1,.81-.5,2.94,2.94,0,0,1,.91-.15,2.17,2.17,0,0,1,.47,0,1.75,1.75,0,0,1,.34.1V12.54l1-.1V21h-.88v-.61h0l-.13.2a1.69,1.69,0,0,1-.27.25,1.65,1.65,0,0,1-1,.3,1.82,1.82,0,0,1-.76-.16,1.72,1.72,0,0,1-.64-.51,2.65,2.65,0,0,1-.43-.91A4.73,4.73,0,0,1,68.67,18.18Zm2.26,2.06a1.25,1.25,0,0,0,.4-.06,1.28,1.28,0,0,0,.31-.15,1.42,1.42,0,0,0,.22-.18,1,1,0,0,0,.14-.17V16.16a1.8,1.8,0,0,0-.31-.14,1.31,1.31,0,0,0-.43-.06,1.8,1.8,0,0,0-.62.11,1.18,1.18,0,0,0-.51.38,1.92,1.92,0,0,0-.34.67,3.78,3.78,0,0,0-.12,1,4,4,0,0,0,.1,1,1.65,1.65,0,0,0,.28.64,1,1,0,0,0,.4.36A1.12,1.12,0,0,0,70.93,20.24Zm7.17-3.07c0,.25,0,.46,0,.64s0,.33,0,.47H75.12a2.54,2.54,0,0,0,.43,1.49,1.37,1.37,0,0,0,1.11.47,1.53,1.53,0,0,0,.45-.06,1.5,1.5,0,0,0,.36-.14,2.71,2.71,0,0,0,.25-.17l.14-.13.36.68-.18.17a1.47,1.47,0,0,1-.32.23,2.16,2.16,0,0,1-.5.2,2.87,2.87,0,0,1-.7.08,2.5,2.5,0,0,1-1-.18,1.82,1.82,0,0,1-.74-.55,2.73,2.73,0,0,1-.47-.95A5.16,5.16,0,0,1,74.18,18a4.32,4.32,0,0,1,.17-1.32,2.61,2.61,0,0,1,.47-.91,2.06,2.06,0,0,1,.69-.53,2.14,2.14,0,0,1,.84-.17,1.63,1.63,0,0,1,1.29.52A2.24,2.24,0,0,1,78.1,17.17Zm-1.81-1.28a1,1,0,0,0-.82.43,2.34,2.34,0,0,0-.35,1.23H77.2s0-.09,0-.17v-.24a1.56,1.56,0,0,0-.24-.93A.82.82,0,0,0,76.29,15.89Zm5.61.2L81.74,16a1.25,1.25,0,0,0-.32,0,1,1,0,0,0-.71.25,1.39,1.39,0,0,0-.36.53V21h-1V15.24h.88V16h0a1.66,1.66,0,0,1,.16-.33,1.08,1.08,0,0,1,.57-.48,1.33,1.33,0,0,1,.47-.07,1.42,1.42,0,0,1,.33,0l.2.06Zm3.41,1.63H82.48v-.79h2.83Zm8,3.24h-.88v-.65h0a1.24,1.24,0,0,1-.15.21,1.37,1.37,0,0,1-.31.26,1.65,1.65,0,0,1-.44.22,1.59,1.59,0,0,1-.59.1A2.06,2.06,0,0,1,90.2,21a1.28,1.28,0,0,1-.52-.37,1.73,1.73,0,0,1-.33-.65,3.84,3.84,0,0,1-.11-1V15.24h1v3.68a1.66,1.66,0,0,0,.24,1,.84.84,0,0,0,.72.3,1.16,1.16,0,0,0,.7-.21,2,2,0,0,0,.45-.41V15.24h1Zm4.6,0V17.28a1.67,1.67,0,0,0-.25-1,.88.88,0,0,0-.74-.32,1.1,1.1,0,0,0-.71.22,3.23,3.23,0,0,0-.46.41V21h-1V15.24h.88v.65h0a1.45,1.45,0,0,1,.16-.21,1.37,1.37,0,0,1,.31-.26,1.88,1.88,0,0,1,.45-.22,1.61,1.61,0,0,1,.6-.1,2.17,2.17,0,0,1,.69.11,1.28,1.28,0,0,1,.52.37,1.73,1.73,0,0,1,.33.65,3.4,3.4,0,0,1,.12,1V21ZM100,18.18a4,4,0,0,1,.23-1.45,2.64,2.64,0,0,1,.58-.94,2,2,0,0,1,.81-.5,2.83,2.83,0,0,1,.9-.15,2.27,2.27,0,0,1,.48,0,1.87,1.87,0,0,1,.33.1V12.54l1-.1V21h-.88v-.61h0a1.31,1.31,0,0,1-.39.45,1.64,1.64,0,0,1-.42.21,1.68,1.68,0,0,1-.58.09,1.83,1.83,0,0,1-.77-.16,1.69,1.69,0,0,1-.63-.51,2.66,2.66,0,0,1-.44-.91A4.73,4.73,0,0,1,100,18.18Zm2.26,2.06a1.31,1.31,0,0,0,.41-.06A1.48,1.48,0,0,0,103,20a2.13,2.13,0,0,0,.22-.18,1.55,1.55,0,0,0,.13-.17V16.16A2.09,2.09,0,0,0,103,16a1.37,1.37,0,0,0-.44-.06,1.8,1.8,0,0,0-.62.11,1.31,1.31,0,0,0-.51.38,2.1,2.1,0,0,0-.34.67,3.78,3.78,0,0,0-.12,1,4,4,0,0,0,.1,1,1.81,1.81,0,0,0,.28.64,1,1,0,0,0,.88.46ZM42.09,31.11A2.69,2.69,0,0,1,42,32a1.73,1.73,0,0,1-.36.61A1.3,1.3,0,0,1,41,33a2.39,2.39,0,0,1-.73.1,1.56,1.56,0,0,1-.48-.06l-.26-.11.16-.86.2.09a.76.76,0,0,0,.33.05.74.74,0,0,0,.61-.25,1.56,1.56,0,0,0,.2-.92V24.75h1ZM47.72,33h-.88v-.65h0a1.45,1.45,0,0,1-.16.21,1.74,1.74,0,0,1-.75.48,1.54,1.54,0,0,1-.58.1,2.06,2.06,0,0,1-.68-.11,1.21,1.21,0,0,1-.52-.37A1.59,1.59,0,0,1,43.8,32a3.84,3.84,0,0,1-.11-1V27.24h1v3.68a1.74,1.74,0,0,0,.23,1,.87.87,0,0,0,.72.3,1.19,1.19,0,0,0,.71-.21,2,2,0,0,0,.45-.41V27.24h1Zm5.57-5h-.71a2,2,0,0,1,.27,1,2.09,2.09,0,0,1-.15.81,1.92,1.92,0,0,1-.41.62,1.94,1.94,0,0,1-.64.38,2.44,2.44,0,0,1-.77.13h-.31a1,1,0,0,0-.3.19.4.4,0,0,0-.16.34.36.36,0,0,0,.14.29.67.67,0,0,0,.45.12h.72a3,3,0,0,1,.75.08,1.5,1.5,0,0,1,.6.27,1.21,1.21,0,0,1,.4.47,1.47,1.47,0,0,1,.14.69,1.79,1.79,0,0,1-.19.84,2,2,0,0,1-.56.66,2.56,2.56,0,0,1-.86.42,3.76,3.76,0,0,1-1.15.16,2.1,2.1,0,0,1-1.39-.4,1.41,1.41,0,0,1-.47-1.15,1.18,1.18,0,0,1,.11-.55,1.46,1.46,0,0,1,.27-.41,1.54,1.54,0,0,1,.31-.27l.26-.16v0a.93.93,0,0,1-.37-.8.8.8,0,0,1,.09-.39,1,1,0,0,1,.2-.28,1.13,1.13,0,0,1,.23-.17l.17-.09v0a1.68,1.68,0,0,1-.71-.64A2.07,2.07,0,0,1,49,29a2,2,0,0,1,.16-.84,1.63,1.63,0,0,1,1-1,2.27,2.27,0,0,1,.75-.12,2.1,2.1,0,0,1,.76.14h1.74Zm-2.65,4.79a1.89,1.89,0,0,1-.44,0,1.37,1.37,0,0,0-.21.15.91.91,0,0,0-.19.2,1,1,0,0,0-.13.28,1,1,0,0,0-.06.37c0,.61.34.92,1,.92a2,2,0,0,0,1.28-.34,1,1,0,0,0,.42-.78.67.67,0,0,0-.26-.59,1.33,1.33,0,0,0-.71-.17ZM51.91,29a1.15,1.15,0,0,0-.29-.88,1,1,0,0,0-.69-.26,1,1,0,0,0-.71.26,1.11,1.11,0,0,0-.3.88,1.13,1.13,0,0,0,.3.88,1,1,0,0,0,.69.26,1.05,1.05,0,0,0,.71-.26A1.16,1.16,0,0,0,51.91,29Zm6.07.15c0,.25,0,.46,0,.64s0,.33-.05.47H55a2.54,2.54,0,0,0,.44,1.49,1.36,1.36,0,0,0,1.11.47,1.53,1.53,0,0,0,.45-.06,1.42,1.42,0,0,0,.35-.14,1.35,1.35,0,0,0,.25-.17,1.16,1.16,0,0,0,.15-.13l.36.68-.18.17a1.77,1.77,0,0,1-.32.23,2.36,2.36,0,0,1-.5.2,2.87,2.87,0,0,1-.7.08,2.5,2.5,0,0,1-1-.18,1.82,1.82,0,0,1-.74-.55,2.73,2.73,0,0,1-.47-.95A5.13,5.13,0,0,1,54.05,30a4.65,4.65,0,0,1,.17-1.32,3,3,0,0,1,.47-.91,2,2,0,0,1,.7-.53,2.14,2.14,0,0,1,.84-.17,1.63,1.63,0,0,1,1.29.52A2.29,2.29,0,0,1,58,29.17Zm-1.81-1.28a1,1,0,0,0-.82.43A2.24,2.24,0,0,0,55,29.55h2.08a.65.65,0,0,0,0-.17,1.85,1.85,0,0,0,0-.24,1.56,1.56,0,0,0-.24-.93A.82.82,0,0,0,56.17,27.89ZM62.38,33V29.28a1.75,1.75,0,0,0-.24-1,.89.89,0,0,0-.75-.32,1.11,1.11,0,0,0-.71.22,2.65,2.65,0,0,0-.45.41V33h-1V27.24h.89v.65h0a.84.84,0,0,1,.15-.21,1.64,1.64,0,0,1,.31-.26,1.79,1.79,0,0,1,.46-.22,1.55,1.55,0,0,1,.59-.1,2.17,2.17,0,0,1,.69.11,1.21,1.21,0,0,1,.52.37,1.6,1.6,0,0,1,.34.65,3.4,3.4,0,0,1,.12,1V33Zm2.14-2.78a4,4,0,0,1,.23-1.45,2.79,2.79,0,0,1,.58-.94,2,2,0,0,1,.81-.5,2.89,2.89,0,0,1,.91-.15,2.17,2.17,0,0,1,.47,0,1.75,1.75,0,0,1,.34.1V24.54l1-.1V33h-.88v-.61h0l-.14.2a1.57,1.57,0,0,1-.26.25,1.65,1.65,0,0,1-1,.3,1.79,1.79,0,0,1-.76-.16,1.65,1.65,0,0,1-.64-.51,2.65,2.65,0,0,1-.43-.91A4.7,4.7,0,0,1,64.52,30.18Zm2.27,2.06a1.25,1.25,0,0,0,.4-.06A1.28,1.28,0,0,0,67.5,32a1.42,1.42,0,0,0,.22-.18,1.77,1.77,0,0,0,.14-.17V28.16a1.8,1.8,0,0,0-.31-.14,1.31,1.31,0,0,0-.43-.06,1.9,1.9,0,0,0-.63.11,1.22,1.22,0,0,0-.5.38,1.92,1.92,0,0,0-.34.67,3.75,3.75,0,0,0-.13,1,3.92,3.92,0,0,0,.11,1,1.81,1.81,0,0,0,.27.64,1.15,1.15,0,0,0,.41.36A1.12,1.12,0,0,0,66.79,32.24Zm6.5.72V29.28a1.84,1.84,0,0,0-.2-1,.7.7,0,0,0-.65-.31A1.33,1.33,0,0,0,72,28a1.52,1.52,0,0,0-.58.34l-.18.19V33h-1V27.24h.88v.65h0a1.47,1.47,0,0,1,.18-.23,1.59,1.59,0,0,1,.3-.27,1.56,1.56,0,0,1,.41-.2,1.53,1.53,0,0,1,.54-.09,1.45,1.45,0,0,1,1.38.76,1.57,1.57,0,0,1,.22-.25,1.76,1.76,0,0,1,.34-.25,1.69,1.69,0,0,1,.43-.19,2.11,2.11,0,0,1,.52-.07c1.16,0,1.74.68,1.74,2V33h-1V29.28a1.58,1.58,0,0,0-.25-1,.86.86,0,0,0-.73-.31,1.14,1.14,0,0,0-.68.19,2.73,2.73,0,0,0-.42.38,2.36,2.36,0,0,1,0,.28c0,.1,0,.2,0,.31V33Zm9.07-3.79c0,.25,0,.46,0,.64s0,.33,0,.47H79.38a2.54,2.54,0,0,0,.43,1.49,1.37,1.37,0,0,0,1.11.47,1.53,1.53,0,0,0,.45-.06,1.5,1.5,0,0,0,.36-.14,2.71,2.71,0,0,0,.25-.17l.14-.13.36.68-.18.17a1.47,1.47,0,0,1-.32.23,2.16,2.16,0,0,1-.5.2,2.87,2.87,0,0,1-.7.08,2.5,2.5,0,0,1-1-.18,1.82,1.82,0,0,1-.74-.55,2.73,2.73,0,0,1-.47-.95A5.16,5.16,0,0,1,78.44,30a4.32,4.32,0,0,1,.17-1.32,2.61,2.61,0,0,1,.47-.91,2.06,2.06,0,0,1,.69-.53,2.14,2.14,0,0,1,.84-.17,1.63,1.63,0,0,1,1.29.52A2.24,2.24,0,0,1,82.36,29.17Zm-1.81-1.28a1,1,0,0,0-.82.43,2.34,2.34,0,0,0-.35,1.23h2.08s0-.09,0-.17v-.24a1.56,1.56,0,0,0-.24-.93A.79.79,0,0,0,80.55,27.89Zm2.84,2.29a4.06,4.06,0,0,1,.22-1.45,2.79,2.79,0,0,1,.58-.94,2,2,0,0,1,.81-.5,2.94,2.94,0,0,1,.91-.15,2.17,2.17,0,0,1,.47,0,1.75,1.75,0,0,1,.34.1V24.54l1-.1V33H86.8v-.61h0l-.13.2a1.69,1.69,0,0,1-.27.25,1.65,1.65,0,0,1-1,.3,1.82,1.82,0,0,1-.76-.16,1.72,1.72,0,0,1-.64-.51,2.65,2.65,0,0,1-.43-.91A4.73,4.73,0,0,1,83.39,30.18Zm2.26,2.06a1.25,1.25,0,0,0,.4-.06,1.28,1.28,0,0,0,.31-.15,1.42,1.42,0,0,0,.22-.18,1,1,0,0,0,.14-.17V28.16a1.8,1.8,0,0,0-.31-.14A1.31,1.31,0,0,0,86,28a1.8,1.8,0,0,0-.62.11,1.18,1.18,0,0,0-.51.38,1.92,1.92,0,0,0-.34.67,3.78,3.78,0,0,0-.12,1,4,4,0,0,0,.1,1,1.65,1.65,0,0,0,.28.64,1,1,0,0,0,.88.46Zm4.47.72h-1V27.24h1Zm-.47-7.1a.62.62,0,0,1-.48-.19.68.68,0,0,1-.18-.5.66.66,0,0,1,.18-.48.62.62,0,0,1,.48-.19.59.59,0,0,1,.46.19.66.66,0,0,1,.18.48.68.68,0,0,1-.18.5A.59.59,0,0,1,89.65,25.86Zm5.61,3.31c0,.25,0,.46,0,.64s0,.33,0,.47H92.28a2.54,2.54,0,0,0,.43,1.49,1.37,1.37,0,0,0,1.11.47,1.53,1.53,0,0,0,.45-.06,1.5,1.5,0,0,0,.36-.14,2.71,2.71,0,0,0,.25-.17l.14-.13.36.68-.18.17a1.47,1.47,0,0,1-.32.23,2.16,2.16,0,0,1-.5.2,2.87,2.87,0,0,1-.7.08,2.5,2.5,0,0,1-1-.18,1.82,1.82,0,0,1-.74-.55,2.73,2.73,0,0,1-.47-.95A5.13,5.13,0,0,1,91.33,30a4.3,4.3,0,0,1,.18-1.32A2.61,2.61,0,0,1,92,27.8a2.06,2.06,0,0,1,.69-.53,2.14,2.14,0,0,1,.84-.17,1.63,1.63,0,0,1,1.29.52A2.24,2.24,0,0,1,95.26,29.17Zm-1.81-1.28a1,1,0,0,0-.82.43,2.34,2.34,0,0,0-.35,1.23h2.08s0-.09,0-.17v-.24a1.56,1.56,0,0,0-.24-.93A.82.82,0,0,0,93.45,27.89ZM99.66,33V29.28a1.75,1.75,0,0,0-.24-1,.88.88,0,0,0-.74-.32,1.12,1.12,0,0,0-.72.22,2.65,2.65,0,0,0-.45.41V33h-1V27.24h.88v.65h0a1.45,1.45,0,0,1,.16-.21,1.37,1.37,0,0,1,.31-.26,1.57,1.57,0,0,1,.45-.22,1.55,1.55,0,0,1,.59-.1,2.08,2.08,0,0,1,.69.11,1.31,1.31,0,0,1,.53.37,1.73,1.73,0,0,1,.33.65,3.4,3.4,0,0,1,.12,1V33Zm4.87-4.56a2.4,2.4,0,0,0-.34-.29,1.05,1.05,0,0,0-.66-.19.84.84,0,0,0-.58.18.53.53,0,0,0-.2.43.79.79,0,0,0,.18.53,2.45,2.45,0,0,0,.57.45l.35.21a3.58,3.58,0,0,1,.92.74,1.57,1.57,0,0,1,.33,1,1.52,1.52,0,0,1-.47,1.15,1.87,1.87,0,0,1-1.35.46,2.15,2.15,0,0,1-.6-.07,3,3,0,0,1-.46-.17,1.33,1.33,0,0,1-.33-.21,1,1,0,0,1-.21-.21l.46-.76.17.17a1.8,1.8,0,0,0,.25.18,1.35,1.35,0,0,0,.32.15,1.31,1.31,0,0,0,.41.06,1,1,0,0,0,.66-.19.58.58,0,0,0,.23-.46.91.91,0,0,0-.06-.35A.74.74,0,0,0,104,31a1.47,1.47,0,0,0-.26-.23l-.36-.23-.35-.23a3.24,3.24,0,0,1-.84-.73,1.47,1.47,0,0,1-.31-1A1.28,1.28,0,0,1,102,28a1.45,1.45,0,0,1,.35-.47,1.85,1.85,0,0,1,.53-.31,2,2,0,0,1,.65-.11,2,2,0,0,1,1,.23,1.7,1.7,0,0,1,.28.21,1.72,1.72,0,0,1,.19.17Zm4.88,0-.11-.11-.2-.14a1,1,0,0,0-.28-.12,1.16,1.16,0,0,0-.38-.06,1.4,1.4,0,0,0-.58.12,1.08,1.08,0,0,0-.47.36,2,2,0,0,0-.31.65,3.81,3.81,0,0,0-.11,1,5.23,5.23,0,0,0,.1,1.06,2,2,0,0,0,.28.68,1.11,1.11,0,0,0,.44.37,1.47,1.47,0,0,0,.56.11,1.21,1.21,0,0,0,.67-.15,2.68,2.68,0,0,0,.33-.25l.39.66a1.31,1.31,0,0,1-.17.18,1.46,1.46,0,0,1-.29.19,1.54,1.54,0,0,1-.43.16,2.12,2.12,0,0,1-.59.07,2.44,2.44,0,0,1-.9-.16,1.71,1.71,0,0,1-.72-.51,2.48,2.48,0,0,1-.49-.93,4.74,4.74,0,0,1-.18-1.41,3.79,3.79,0,0,1,.22-1.39,2.65,2.65,0,0,1,.56-.93,2.21,2.21,0,0,1,.76-.51,2.56,2.56,0,0,1,.85-.16,2.37,2.37,0,0,1,.57.06,2.05,2.05,0,0,1,.42.15,1.24,1.24,0,0,1,.28.19l.19.17ZM113.94,33V29.28a1.75,1.75,0,0,0-.24-1,.88.88,0,0,0-.74-.32,1.12,1.12,0,0,0-.72.22,2.65,2.65,0,0,0-.45.41V33h-1V24.54l1-.1v3.39h0l.15-.19a1.39,1.39,0,0,1,.28-.24,2,2,0,0,1,.44-.21,1.8,1.8,0,0,1,.6-.09,1.5,1.5,0,0,1,1.19.49,2.4,2.4,0,0,1,.44,1.62V33Zm6.41,0h-.88v-.65h0a.84.84,0,0,1-.15.21,1.37,1.37,0,0,1-.31.26,1.65,1.65,0,0,1-.44.22,1.57,1.57,0,0,1-.58.1,2.08,2.08,0,0,1-.69-.11,1.35,1.35,0,0,1-.52-.37,1.58,1.58,0,0,1-.32-.65,3.4,3.4,0,0,1-.12-1V27.24h1v3.68a1.67,1.67,0,0,0,.23,1,.84.84,0,0,0,.72.3,1.14,1.14,0,0,0,.7-.21,2,2,0,0,0,.45-.41V27.24h1ZM124.26,28H123V31.2a1.44,1.44,0,0,0,.16.82.58.58,0,0,0,.52.22,1,1,0,0,0,.37-.06l.23-.1.13.77-.29.15a1.46,1.46,0,0,1-.61.1,1.4,1.4,0,0,1-1.1-.41,2,2,0,0,1-.37-1.36V28h-.69v-.64l.69-.15.11-1.59H123v1.59h1.37Zm4.29-.17-2.31,4.25v0h2.46l-.08.82H125v-.62l2.38-4.29v0h-2.25v-.79h3.43Z"/>
  </g>
  <g id="Adler_und_Saeulenelement" data-name="Adler und Saeulenelement">
    <polygon class="cls-3" points="31.43 40.96 32.93 40.96 32.93 60.96 29.43 60.96 29.43 40.96 31.43 40.96"/>
    <polygon class="cls-4" points="31.43 20.86 32.93 20.86 32.93 40.96 29.43 40.96 29.43 20.86 31.43 20.86"/>
    <path class="cls-2" d="M20.32,8a2.82,2.82,0,0,0,3,1.59,8.57,8.57,0,0,1-2-2.25l-1.87-3a4.55,4.55,0,0,0-1.38-2.44,2.44,2.44,0,0,0,.56-.27c-1.22,0-2.43-.62-3.1-.62a.62.62,0,0,0-.7.59c0,.38.42.76,1.13.76a3.67,3.67,0,0,0,.6-.06A2.83,2.83,0,0,1,17.32,4c0,1.31-1.57,2.33-3.15,2.33h-.26a3.56,3.56,0,0,1-.62-1.49c0-1,.68-1.89.68-2.92A1.91,1.91,0,0,0,13.54.7,1.9,1.9,0,0,0,14,.14a1.06,1.06,0,0,1-.44.06c-.76,0-1.37-.2-2-.2-.34,0-.43.11-.43.21a.25.25,0,0,0,0,.09,2.5,2.5,0,0,0-.39-.11,3.45,3.45,0,0,0-.57,0c-.73,0-1,.31-1,.57a2.22,2.22,0,0,0,.37.94,2.13,2.13,0,0,1,.78-.24,1.15,1.15,0,0,1,.92.81,3.64,3.64,0,0,1-.57,0A4.28,4.28,0,0,1,9.4,2s0,0,0,0,.2.37.6.51a7.14,7.14,0,0,0,1.44.3.64.64,0,0,1-.28.32.14.14,0,0,1-.09,0,6.42,6.42,0,0,1-1.4-.42s0,0,0,0c0,.27.71.88,1.35,1.11A7,7,0,0,0,9.45,6.31H9.18C7.6,6.32,6,5.3,6,4a2.84,2.84,0,0,1,.71-1.73,3.46,3.46,0,0,0,.59.06c.72,0,1.11-.38,1.14-.76S8.19,1,7.76,1a29.3,29.3,0,0,1-3.1.62,2.79,2.79,0,0,0,.57.27A4.42,4.42,0,0,0,3.85,4.3L2,7.29A8.84,8.84,0,0,1,0,9.54,2.83,2.83,0,0,0,3,8L4,6.41A4.47,4.47,0,0,0,4.26,7L2.35,10.05a8.84,8.84,0,0,1-2,2.25,2.82,2.82,0,0,0,3-1.59L5.05,8.08l.38.38L3.12,12.17a8.49,8.49,0,0,1-2,2.25,2.82,2.82,0,0,0,3-1.59L6.43,9.22l.46.27L4.13,13.9a8.73,8.73,0,0,1-2,2.25,2.82,2.82,0,0,0,3-1.59L8,10l.51.19L5.33,15.33a8.64,8.64,0,0,1-2,2.25,2.83,2.83,0,0,0,3-1.59l3.42-5.47.1,0a2.89,2.89,0,0,1,.16.84,6.17,6.17,0,0,1-2.48,4.41,1,1,0,0,0,.37.05,4.07,4.07,0,0,0,.59,0,14,14,0,0,1-1.33,2.11,9.78,9.78,0,0,0-1.51-.15c-.44,0-.49.26-.49.49a1.17,1.17,0,0,0,.41.9c.08-.2.24-.48,1.06-.48h.08c-.24.26-1,.87-1,1.35a.9.9,0,0,0,.82.81,1,1,0,0,1,0-.27,2.06,2.06,0,0,1,.65-1.18,1.27,1.27,0,0,0,0,.2c0,.93.09,1.36.68,1.36a.87.87,0,0,0,.55-.21,1.27,1.27,0,0,1-.4-1.15v-.46a1.7,1.7,0,0,0,0-.39,2.7,2.7,0,0,1,.46,0s.84-.06,1,.37c.22-.21.56-.5.56-.83s-.11-.45-.54-.45c-.16,0-.68.1-1.11.1a11,11,0,0,1,1.08-1.56,1.25,1.25,0,0,0,.41.63,4.43,4.43,0,0,1,.79-2.12,10.77,10.77,0,0,1,.15,1.84c0,2.32-.56,4-1.74,4.35a1,1,0,0,0,.81.51c.44,0,.67-.49.91-.95.13.34.47,1.17.82,1.17s.69-.83.81-1.17c.24.46.48.95.91.95a1,1,0,0,0,.82-.51c-1.18-.32-1.74-2-1.74-4.35a10.77,10.77,0,0,1,.15-1.84A4.43,4.43,0,0,1,13.42,17a1.32,1.32,0,0,0,.41-.63,10.74,10.74,0,0,1,1.07,1.56c-.43,0-.94-.1-1.11-.1-.43,0-.53.24-.53.45s.33.62.56.83c.2-.43,1-.37,1-.37a2.64,2.64,0,0,1,.46,0,2.55,2.55,0,0,0,0,.39v.46a1.27,1.27,0,0,1-.4,1.15.93.93,0,0,0,.56.21c.59,0,.67-.43.67-1.36a1.33,1.33,0,0,0,0-.2,2.1,2.1,0,0,1,.64,1.18.9.9,0,0,1,0,.27.9.9,0,0,0,.82-.81c0-.48-.75-1.09-1-1.35h.08c.82,0,1,.28,1.07.48a1.16,1.16,0,0,0,.4-.9c0-.23-.05-.49-.49-.49a10,10,0,0,0-1.51.15,14.84,14.84,0,0,1-1.33-2.11,4.07,4.07,0,0,0,.59,0,1.06,1.06,0,0,0,.38-.05,6.13,6.13,0,0,1-2.48-4.41,2.87,2.87,0,0,1,.15-.84l.11,0L17,16a2.83,2.83,0,0,0,3,1.59,8.64,8.64,0,0,1-2-2.25L14.81,10.2l.52-.19,2.83,4.55a2.83,2.83,0,0,0,3,1.59,8.81,8.81,0,0,1-2-2.25L16.46,9.49l.46-.27,2.26,3.61a2.83,2.83,0,0,0,3,1.59,8.49,8.49,0,0,1-2-2.25L17.92,8.46a4.68,4.68,0,0,0,.39-.38L20,10.71a2.83,2.83,0,0,0,3,1.59,8.46,8.46,0,0,1-2-2.25L19.1,7a4.41,4.41,0,0,0,.26-.59ZM5,4.43A3.33,3.33,0,0,1,6.13,2.14l.21,0A3,3,0,0,0,5.49,4c0,1.67,1.78,3.12,3.8,3.12a3.17,3.17,0,0,0,0,.44c0,.25,0,.48,0,.7A4.27,4.27,0,0,1,5,4.43ZM8.1,18.11v0h0a7,7,0,0,0,1.16-.08l.27,0c.17,0,.29,0,.29.21a.82.82,0,0,1-.31.48,1.47,1.47,0,0,0-1-.26,6,6,0,0,0-.67.06H7.77v.07c0,.14,0,.3,0,.52v.46a1.64,1.64,0,0,0,.27,1.09l-.18,0c-.34,0-.44-.15-.44-1.12,0-.2,0-.38,0-.5v-.18l0,0a2.67,2.67,0,0,0-1,1.58A.71.71,0,0,1,6,20c0-.28.41-.7.9-1.18l.28-.28,0,0-.1,0a1.74,1.74,0,0,0-.46-.08,1.42,1.42,0,0,0-1.1.34,1.25,1.25,0,0,1-.14-.52.28.28,0,0,1,.06-.2.25.25,0,0,1,.19,0h0a10.35,10.35,0,0,1,1.6.16h0a14.38,14.38,0,0,0,1.49-2.4.55.55,0,0,1,.25,0c.22,0,.28.16.35.39A7.87,7.87,0,0,0,8.1,18.11Zm6.18-2.4a.55.55,0,0,1,.25,0A13.73,13.73,0,0,0,16,18.16h0a10.35,10.35,0,0,1,1.6-.16h0a.24.24,0,0,1,.18,0,.28.28,0,0,1,.06.2,1.12,1.12,0,0,1-.14.52,1.4,1.4,0,0,0-1.1-.34,1.9,1.9,0,0,0-.46.08h-.09l.31.32c.49.48.91.9.91,1.18a.71.71,0,0,1-.31.49A2.69,2.69,0,0,0,16,19l0,0v.18c0,.12,0,.3,0,.5,0,1-.1,1.12-.44,1.12l-.18,0a1.65,1.65,0,0,0,.26-1.09v-.46a3.44,3.44,0,0,1,0-.52v-.07h-.05a6.14,6.14,0,0,0-.68-.06,1.43,1.43,0,0,0-1,.26.79.79,0,0,1-.32-.48c0-.2.13-.21.29-.21l.27,0a7,7,0,0,0,1.16.08h0v0a7.76,7.76,0,0,0-1.32-2C14,15.87,14.05,15.71,14.28,15.71ZM11.63,2.41a2,2,0,0,0-.42-.83,1.15,1.15,0,0,0-.86-.45,2.24,2.24,0,0,0-.67.16A1.84,1.84,0,0,1,9.47.71c0-.15.25-.29.72-.29,1,0,1.65.46,1.65,1.25A1.82,1.82,0,0,1,11.63,2.41Zm.46-1a1.33,1.33,0,0,0-.25-.6c0-.2.09-.39.42-.23-.18.18,0,.5,0,.5s.36-.17.28-.41C13,.79,12.65,1.51,12.09,1.4Zm2,6.9a5.37,5.37,0,0,0,0-.7c0-.12,0-.27,0-.44,2,0,3.74-1.47,3.74-3.12A3,3,0,0,0,17,2.19l.21,0a3.33,3.33,0,0,1,1.12,2.29A4.26,4.26,0,0,1,14.1,8.3Z"/>
    <polygon class="cls-2" points="32.93 0.96 32.93 20.96 31.43 20.96 29.43 20.96 29.43 0.96 32.93 0.96"/>
  </g>
</svg>
